<svg width="40" height="40" viewBox="0 0 40 40" fill="none" xmlns="http://www.w3.org/2000/svg">
<path d="M27.3047 13.7891H25.4727C25.0742 13.7891 24.6953 13.9805 24.4609 14.3086L18.3203 22.8242L15.5391 18.9648C15.3047 18.6406 14.9297 18.4453 14.5273 18.4453H12.6953C12.4414 18.4453 12.293 18.7344 12.4414 18.9414L17.3086 25.6914C17.4236 25.8519 17.5752 25.9827 17.7508 26.0729C17.9264 26.1631 18.1209 26.2101 18.3184 26.2101C18.5158 26.2101 18.7104 26.1631 18.886 26.0729C19.0616 25.9827 19.2132 25.8519 19.3281 25.6914L27.5547 14.2852C27.707 14.0781 27.5586 13.7891 27.3047 13.7891Z" fill="#FFF5FD"/>
<path d="M20 2.5C10.3359 2.5 2.5 10.3359 2.5 20C2.5 29.6641 10.3359 37.5 20 37.5C29.6641 37.5 37.5 29.6641 37.5 20C37.5 10.3359 29.6641 2.5 20 2.5ZM20 34.5312C11.9766 34.5312 5.46875 28.0234 5.46875 20C5.46875 11.9766 11.9766 5.46875 20 5.46875C28.0234 5.46875 34.5312 11.9766 34.5312 20C34.5312 28.0234 28.0234 34.5312 20 34.5312Z" fill="#FFF5FD"/>
</svg>
